<?xml version="1.0" encoding="UTF-8"?>
<!DOCTYPE svg  PUBLIC '-//W3C//DTD SVG 1.0//EN'  'http://www.w3.org/TR/2001/REC-SVG-20010904/DTD/svg10.dtd'>
<svg width="71.66mm" height="71.66mm" clip-rule="evenodd" fill-rule="evenodd" image-rendering="optimizeQuality" shape-rendering="geometricPrecision" text-rendering="geometricPrecision" version="1.0" viewBox="0 0 1036 1036" xml:space="preserve" xmlns="http://www.w3.org/2000/svg">
 <defs>
  <style type="text/css">
   <![CDATA[
    .fil2 {fill:none}
    .fil1 {fill:#434242}
    .fil0 {fill:#9D9E9E}
    .fil3 {fill:#FEFEFE;fill-rule:nonzero}
   ]]>
  </style>
    <clipPath id="d">
     <path d="m518 0c286 0 518 232 518 518s-232 518-518 518-518-232-518-518 232-518 518-518z"/>
    </clipPath>
      <mask id="e">
  <linearGradient id="f" x1="476.96" x2="1502.7" y1="309.73" y2="1129.9" gradientUnits="userSpaceOnUse">
   <stop stop-color="#fff" offset="0"/>
   <stop stop-color="#fff" stop-opacity="0" offset="1"/>
  </linearGradient>
       <rect x="396" y="181" width="1189" height="1078" fill="url(#f)"/>
      </mask>
 </defs>
   <path class="fil0" d="m518 0c286 0 518 232 518 518s-232 518-518 518-518-232-518-518 232-518 518-518z"/>
   <g clip-path="url(#d)">
     <path class="fil1" d="m462 855c276 139 552 278 635 349 83 70-25 72 24 11 50-61 259-187 373-323 115-137 136-284-33-405-170-120-530-213-891-306-41 17-82 34-110 65-28 32-42 77-52 122-9 44-16 88-11 130 5 43 20 84 56 116 36 33 92 55 117 87 26 32 21 73-2 100s-64 41-86 25c-22-15-24-60-24-60s2 45 4 89z" mask="url(#e)"/>
   </g>
   <path class="fil2" d="m518 0c286 0 518 232 518 518s-232 518-518 518-518-232-518-518 232-518 518-518z"/>
   <path class="fil3" d="m669 295l-98 10c-1-18-6-31-15-40-10-10-23-14-39-14-15 0-27 3-35 10-8 6-12 14-12 23 0 11 5 23 16 33 7 8 32 25 73 51 41 27 69 46 82 58 21 17 36 34 44 51 9 18 14 37 14 57 0 23-6 43-16 62-11 19-28 36-49 51 14 13 25 28 32 43s11 31 11 48c0 35-13 65-40 89-26 24-64 36-114 36-48 0-86-12-115-36-28-23-45-55-51-94l99-12c4 22 12 38 24 49 12 10 27 16 46 16 15 0 28-4 37-13 9-8 14-18 14-30 0-11-4-21-13-30s-41-30-95-65c-55-35-90-64-107-87-16-23-24-48-24-77 0-23 5-45 16-65s28-37 51-50c-12-13-21-26-28-39-5-13-9-27-9-41 0-32 13-60 38-82s61-33 106-33c47 0 83 11 110 33 27 23 43 52 47 88zm-89 308c10-9 18-18 23-27s8-17 8-25-3-17-8-25c-6-8-21-21-46-39l-97-71c-8 4-15 11-21 20-7 9-10 18-10 28 0 25 16 47 49 69l102 70z"/>
</svg>
